<svg xmlns="http://www.w3.org/2000/svg" width="51.342" height="60" viewBox="0 0 51.342 60">
  <g id="Logo-Lancrage" transform="translate(-60.931 -1027.734)">
    <path id="Tracé_1" data-name="Tracé 1" d="M174.767,1142.545l-3.362-9.172a.18.18,0,0,0-.3-.06l-6.415,7.031a.181.181,0,0,0,.133.3H167.8c-1.4,5.539-4.267,7.261-6.016,7.209s-3.074-.636-4.824-2.412-2.6-9.143-2.6-9.143l-2.518-18.022,8.658-2.448a.09.09,0,0,0-.014-.176l-9.413-1.139-.113-2.584c4.267-1.484,4.039-4.841,4.039-4.841-.371-6.727-5.866-6.3-5.866-6.3l.06.02s-5.183-.866-5.645,6.387c0,0-.583,3.5,3.684,4.983l-.106,2.332-9.413,1.139a.09.09,0,0,0-.014.176l8.658,2.448-2.518,18.022s-.848,7.367-2.6,9.143-3.074,2.359-4.824,2.412-4.612-1.67-6.016-7.209h2.984a.181.181,0,0,0,.133-.3l-6.415-7.031a.18.18,0,0,0-.3.06l-3.362,9.172a.18.18,0,0,0,.237.229l2.91-1.173s1.935,8.03,6.016,11.1,6.1,3.711,8.19,4.161,7.288,1.988,8.242,3.869c0,0,.02.046.061.045a.1.1,0,0,0,.069-.045c.954-1.881,6.149-3.419,8.242-3.869s4.108-1.087,8.19-4.161,6.016-11.1,6.016-11.1l2.91,1.173A.18.18,0,0,0,174.767,1142.545Zm-25.652-38.8h0a1.659,1.659,0,0,1,1.812,1.952l-1.812,4.293.02.048h-.041l.02-.048L147.3,1105.7A1.66,1.66,0,0,1,149.115,1103.75Zm-.016,16.3a.045.045,0,0,1,.09,0l2.436,19.029a.09.09,0,0,1-.09.1l-4.651-.032a.09.09,0,0,1-.089-.1Zm11.714,31.255a26.407,26.407,0,0,1-7.317,2.881c-3.376.75-4.182,1.988-4.374,2.516a.071.071,0,0,1-.134,0c-.222-.526-1.1-1.767-4.48-2.52a26.4,26.4,0,0,1-7.317-2.881.133.133,0,0,1,.051-.246c7.039-1.145,8.635-9.109,8.635-9.109h6.25s1.6,7.964,8.636,9.109A.133.133,0,0,1,160.813,1151.3Z" transform="translate(-62.505 -73.046)" fill="#fff"/>
  </g>
</svg>
