<svg xmlns="http://www.w3.org/2000/svg" width="30" height="22" viewBox="0 0 30 22">
  <g id="Email" transform="translate(4594.593 -812.249)">
    <g id="Groupe_22" data-name="Groupe 22" transform="translate(-4594.593 812.249)">
      <path id="Tracé_1413" data-name="Tracé 1413" d="M-4594.593,933.194V919.725a.8.8,0,0,1,.13.056l12.177,7.943a4.6,4.6,0,0,0,5.364.016q6.018-3.92,12.031-7.845c.085-.056.173-.108.3-.185v.234q0,6.418,0,12.837a2.856,2.856,0,0,1-.087.708,2.755,2.755,0,0,1-2.823,2.045q-5.99,0-11.98,0-6.093,0-12.186,0a2.925,2.925,0,0,1-2.079-.77A3.01,3.01,0,0,1-4594.593,933.194Z" transform="translate(4594.593 -913.535)" fill="#03200e"/>
      <path id="Tracé_1414" data-name="Tracé 1414" d="M-4594.593,815.344V814.6a1.58,1.58,0,0,0,.055-.159,2.688,2.688,0,0,1,1.852-2.038c.18-.063.369-.1.554-.153h25.078a.665.665,0,0,0,.13.052,2.738,2.738,0,0,1,2.267,2.086,2.549,2.549,0,0,1-1.186,2.774q-6.073,3.969-12.155,7.924a2.745,2.745,0,0,1-3.208-.012q-6.081-3.958-12.151-7.931a2.446,2.446,0,0,1-.713-.665A7.881,7.881,0,0,1-4594.593,815.344Z" transform="translate(4594.593 -812.249)" fill="#03200e"/>
    </g>
  </g>
</svg>
