<svg xmlns="http://www.w3.org/2000/svg" xmlns:xlink="http://www.w3.org/1999/xlink" width="30" height="30" viewBox="0 0 30 30">
  <defs>
    <clipPath id="clip-path">
      <circle id="Ellipse_23" data-name="Ellipse 23" cx="15" cy="15" r="15" transform="translate(-732.105 -586.15)" fill="none"/>
    </clipPath>
  </defs>
  <g id="English-Circle" transform="translate(732.105 586.15)">
    <g id="Groupe_17" data-name="Groupe 17" clip-path="url(#clip-path)">
      <g id="English">
        <path id="Tracé_1363" data-name="Tracé 1363" d="M-737.04-571.151c0-4.856.023-9.712-.05-14.567,0-.342.443-.435,2.545-.432q17.562.03,35.124,0c1.883,0,2.3.08,2.3.388q-.079,14.609,0,29.217c0,.307-.4.392-2.289.389q-17.687-.024-35.373,0c-1.883,0-2.3-.079-2.3-.388C-737.021-561.412-737.04-566.282-737.04-571.151Z" fill="#fff"/>
        <path id="Tracé_1364" data-name="Tracé 1364" d="M-720.437-571.146q0-7.284-.008-14.567c0-.342.074-.435.425-.432q2.936.03,5.87,0c.315,0,.384.079.384.387q-.014,14.608,0,29.218c0,.306-.066.391-.383.388q-2.955-.024-5.912,0c-.314,0-.384-.079-.384-.387Q-720.429-563.842-720.437-571.146Z" fill="#d70027"/>
        <path id="Tracé_1365" data-name="Tracé 1365" d="M-729.6-567.816c-2.372,0-4.745-.006-7.117.008-.31,0-.39-.071-.387-.385q.024-2.953,0-5.908c0-.314.079-.385.387-.384q7.117.016,14.235,0c.309,0,.39.071.387.384q-.024,2.955,0,5.909c0,.314-.079.386-.387.384C-724.855-567.822-727.227-567.816-729.6-567.816Z" fill="#d70027"/>
        <path id="Tracé_1366" data-name="Tracé 1366" d="M-704.61-567.816c-2.373,0-4.745-.006-7.118.008-.307,0-.39-.068-.388-.384q.024-2.953,0-5.908c0-.312.076-.386.387-.385q7.117.016,14.235,0c.307,0,.39.068.388.383q-.024,2.955,0,5.909c0,.312-.076.387-.387.385C-699.865-567.822-702.238-567.816-704.61-567.816Z" fill="#d70027"/>
        <path id="Tracé_1367" data-name="Tracé 1367" d="M-722.1-577.813l-12.378-8.249c.086-.132.208-.07.3-.07q5.846-.006,11.693,0c.17,0,.387-.093.386.249C-722.108-583.222-722.1-580.56-722.1-577.813Z" fill="#0053b4"/>
        <path id="Tracé_1368" data-name="Tracé 1368" d="M-699.65-586.111l-12.384,8.253c-.126-.1-.07-.215-.071-.314,0-2.538,0-5.077-.008-7.616,0-.254.041-.355.332-.354q5.953.015,11.906.007C-699.835-586.135-699.795-586.127-699.65-586.111Z" fill="#0053b4"/>
        <path id="Tracé_1369" data-name="Tracé 1369" d="M-722.1-564.485c0,2.74-.008,5.389.009,8.038,0,.357-.2.288-.394.288h-11.973l-.026-.073Z" fill="#0053b4"/>
        <path id="Tracé_1370" data-name="Tracé 1370" d="M-699.753-556.158h-2.99c-2.971,0-5.941-.005-8.912.007-.34,0-.467-.044-.464-.437.022-2.483.011-4.967.011-7.451v-.449l12.384,8.252Z" fill="#0053b4"/>
        <path id="Tracé_1371" data-name="Tracé 1371" d="M-711.987-576.223l14.871-9.911c0,.841,0,1.619,0,2.4,0,.153-.139.2-.236.265q-5.2,3.6-10.392,7.19a.515.515,0,0,1-.293.138h-3.936Z" fill="#d70027"/>
        <path id="Tracé_1372" data-name="Tracé 1372" d="M-697.114-556.162l-14.879-9.916c.083-.133.206-.069.3-.069,1.151-.005,2.3,0,3.454-.007a.88.88,0,0,1,.537.166q5.156,3.577,10.321,7.141a.529.529,0,0,1,.271.5C-697.125-557.64-697.114-556.937-697.114-556.162Z" fill="#d70027"/>
        <path id="Tracé_1373" data-name="Tracé 1373" d="M-737.1-586.139l14.887,9.921c-.089.133-.21.071-.307.072-1.152.005-2.3,0-3.455.007a.881.881,0,0,1-.537-.168q-5.157-3.579-10.325-7.145a.528.528,0,0,1-.269-.5C-737.086-584.658-737.1-585.361-737.1-586.139Z" fill="#d70027"/>
        <path id="Tracé_1374" data-name="Tracé 1374" d="M-737.1-556.158c0-.821.005-1.566,0-2.311a.361.361,0,0,1,.2-.328l10.459-7.237a.51.51,0,0,1,.3-.118c1.3,0,2.6,0,3.922.073Z" fill="#d70027"/>
        <path id="Tracé_1375" data-name="Tracé 1375" d="M-728.9-576.143h-2.316c-1.83,0-3.66-.006-5.49.007-.291,0-.4-.042-.4-.374.019-1.705.009-3.41.009-5.115v-.347l8.219,5.751Z" fill="#0053b4"/>
        <path id="Tracé_1376" data-name="Tracé 1376" d="M-697.114-581.971v2.185q0,1.664,0,3.326c0,.161.048.323-.23.322-2.648-.011-5.3-.01-7.942-.013-.008,0-.016-.018-.053-.063Z" fill="#0053b4"/>
        <path id="Tracé_1377" data-name="Tracé 1377" d="M-728.875-566.074l-8.221,5.753v-.627q0-2.431,0-4.865c0-.177-.044-.345.253-.344,2.646.011,5.292.007,7.938.007Z" fill="#0053b4"/>
        <path id="Tracé_1378" data-name="Tracé 1378" d="M-697.114-560.323l-8.222-5.753c.091-.131.211-.071.309-.071,2.509,0,5.018,0,7.526-.01.3,0,.4.05.395.377C-697.124-563.994-697.114-562.206-697.114-560.323Z" fill="#0053b4"/>
      </g>
    </g>
  </g>
</svg>
