<svg xmlns="http://www.w3.org/2000/svg" width="20" height="20" viewBox="0 0 20 20">
  <g id="Heure" transform="translate(5704.172 -1423.262)">
    <g id="Groupe_23" data-name="Groupe 23">
      <path id="Tracé_1417" data-name="Tracé 1417" d="M-5693.743,1443.262h-.859a1.55,1.55,0,0,0-.19-.032,8.4,8.4,0,0,1-2.093-.343,9.89,9.89,0,0,1-7.128-7.977c-.079-.374-.107-.758-.159-1.137v-1.249c.044-.328.079-.656.134-.982a9.58,9.58,0,0,1,3.2-5.731,9.81,9.81,0,0,1,9.938-1.995,9.884,9.884,0,0,1,6.7,10.064,10.124,10.124,0,0,1-2.864,6.4,9.478,9.478,0,0,1-5.689,2.871C-5693.084,1443.195-5693.414,1443.225-5693.743,1443.262Zm-.43-1.614a8.217,8.217,0,0,0,8.42-8.427,8.372,8.372,0,0,0-8.409-8.4,8.376,8.376,0,0,0-8.43,8.4A8.221,8.221,0,0,0-5694.173,1441.648Z" fill="#c45829"/>
      <path id="Tracé_1418" data-name="Tracé 1418" d="M-5694.214,1430.025c0,.722,0,1.444-.005,2.166a1,1,0,0,1-.109.31q-.135.337-.275.675a.834.834,0,0,1-.125.263c-.773.782-1.553,1.557-2.328,2.336a.746.746,0,0,0-.2.823.746.746,0,0,0,.65.517.8.8,0,0,0,.7-.28c.747-.752,1.5-1.5,2.247-2.251a.5.5,0,0,1,.332-.165,1.1,1.1,0,0,0,.983-.748,1.132,1.132,0,0,0-.228-1.217.409.409,0,0,1-.076-.243c0-1.457,0-2.914,0-4.37a.777.777,0,0,0-1.057-.781.767.767,0,0,0-.5.761C-5694.217,1428.556-5694.214,1429.29-5694.214,1430.025Z" fill="#c45829"/>
    </g>
  </g>
</svg>
