<svg xmlns="http://www.w3.org/2000/svg" width="50" height="50" viewBox="0 0 50 50">
  <path id="TiTok" d="M-1232.8,932.051a25,25,0,0,0-25,25,25,25,0,0,0,25,25,25,25,0,0,0,25-25A25,25,0,0,0-1232.8,932.051Zm11,22.777a10.384,10.384,0,0,1-6.034-1.922v8.734a7.956,7.956,0,0,1-7.983,7.911,7.987,7.987,0,0,1-4.575-1.433,7.886,7.886,0,0,1-3.408-6.478,7.956,7.956,0,0,1,7.982-7.911,8.1,8.1,0,0,1,1.076.077v4.388a3.637,3.637,0,0,0-1.076-.167,3.634,3.634,0,0,0-3.645,3.613,3.61,3.61,0,0,0,1.955,3.2,3.647,3.647,0,0,0,1.691.415,3.633,3.633,0,0,0,3.639-3.477l.007-17.225h4.337a6.037,6.037,0,0,0,.1,1.091,5.994,5.994,0,0,0,2.646,3.92,6.032,6.032,0,0,0,3.286.968Z" transform="translate(1257.795 -932.051)" fill="#fff"/>
</svg>
