<svg xmlns="http://www.w3.org/2000/svg" width="335" height="328.897" viewBox="0 0 335 328.897">
  <g id="Logo-Lancrage" transform="translate(-78.093 -1100.781)">
    <path id="Tracé_1" data-name="Tracé 1" d="M315.747,1257.252l-12.6-34.365a.674.674,0,0,0-1.132-.223l-24.034,26.344a.676.676,0,0,0,.5,1.132H289.66c-5.261,20.751-15.985,27.206-22.539,27.008s-11.518-2.384-18.072-9.036-9.73-34.256-9.73-34.256l-9.433-67.521,32.437-9.173a.338.338,0,0,0-.051-.661l-35.265-4.266-.422-9.681c15.987-5.561,15.134-18.138,15.134-18.138-1.391-25.2-21.976-23.588-21.976-23.588l.223.073s-19.417-3.244-21.15,23.93c0,0-2.185,13.107,13.8,18.668l-.4,8.737-35.265,4.266a.338.338,0,0,0-.051.661l32.437,9.173-9.433,67.521s-3.178,27.6-9.73,34.256-11.518,8.836-18.072,9.036-17.278-6.257-22.539-27.008h11.178a.676.676,0,0,0,.5-1.132l-24.034-26.344a.676.676,0,0,0-1.134.223l-12.6,34.365a.675.675,0,0,0,.887.858l10.9-4.4s7.248,30.086,22.539,41.6,22.838,13.9,30.683,15.59,27.305,7.448,30.88,14.5c0,0,.076.174.23.169a.37.37,0,0,0,.257-.169c3.575-7.049,23.036-12.809,30.88-14.5s15.39-4.072,30.683-15.59,22.539-41.6,22.539-41.6l10.9,4.4A.675.675,0,0,0,315.747,1257.252ZM219.642,1111.9h0c7.831-.149,6.787,7.313,6.787,7.313l-6.787,16.084.076.181h-.152l.076-.181-6.789-16.084S211.809,1111.755,219.642,1111.9Zm-.061,61.06a.169.169,0,0,1,.336,0l9.127,71.292a.338.338,0,0,1-.338.38l-17.426-.12a.339.339,0,0,1-.333-.38Zm43.889,117.1a98.938,98.938,0,0,1-27.415,10.795c-12.648,2.812-15.669,7.448-16.389,9.426a.268.268,0,0,1-.5.013c-.833-1.97-4.106-6.622-16.786-9.439a98.9,98.9,0,0,1-27.413-10.795.5.5,0,0,1,.193-.921c26.373-4.29,32.352-34.128,32.352-34.128h23.416s5.979,29.838,32.354,34.128A.5.5,0,0,1,263.47,1290.06Z" transform="translate(31.268 0)" fill="#fff"/>
    <g id="Groupe_1" data-name="Groupe 1" transform="translate(78.093 1391.691)">
      <path id="Tracé_2" data-name="Tracé 2" d="M78.093,1273.392h5.322v34.831h4.8c2.271,0,8.95-.157,10.437-.208v1.9H78.093Z" transform="translate(-78.093 -1272.662)" fill="#fff"/>
      <path id="Tracé_3" data-name="Tracé 3" d="M98.384,1273.392h5.687c-1.957,4.41-3.94,8.872-5.949,13.2h-1.46Z" transform="translate(-65.288 -1272.662)" fill="#fff"/>
      <path id="Tracé_4" data-name="Tracé 4" d="M127.723,1298.8H114.235c-1.852,5.53-3.261,9.992-3.548,11.114h-2.141l12.628-36.527H124.7l12.366,36.527h-5.609Zm-.574-1.723-6.1-18.158-5.949,17.4c-.078.26-.182.5-.26.755Z" transform="translate(-57.093 -1272.662)" fill="#fff"/>
      <path id="Tracé_5" data-name="Tracé 5" d="M136.592,1280.333v12.888c0,6,.208,16.046.235,16.7H134.9v-36.527h3.7l20.691,29.716v-13.02c0-6-.235-15.782-.26-16.7h1.957v36.527h-3.732Z" transform="translate(-38.923 -1272.662)" fill="#fff"/>
      <path id="Tracé_6" data-name="Tracé 6" d="M190.2,1303.746a15.71,15.71,0,0,1-12.966,7.2c-9.316,0-16.62-8.662-16.62-18.89,0-10.07,7.174-19.1,16.958-19.1a29.82,29.82,0,0,1,10.724,2.139l-1.617,4.723c-2.114-1.435-8.4-5.062-9.969-5.245-7.147.7-10.7,5.844-10.7,15.394,0,11.3,5.584,18.6,13.175,18.6,4.984,0,7.828-3.105,9.5-5.947Z" transform="translate(-21.19 -1272.96)" fill="#fff"/>
      <path id="Tracé_7" data-name="Tracé 7" d="M188.272,1273.392h9.992c11.089,0,13.75,5.559,13.75,9.862,0,5.452-3.967,8.531-7.41,9.732l9.21,16.933h-6.077l-8.455-16.046c-2.061-.1-4.1-.312-5.689-.5v16.541h-5.321Zm5.321,18.472c1.776.157,3.81.26,5.506.26.782,0,1.487-.025,2.088-.078,2.164-.836,5.27-3.131,5.27-8.453,0-7.749-6.471-8.505-9.992-8.505h-2.872Z" transform="translate(-2.116 -1272.662)" fill="#fff"/>
      <path id="Tracé_8" data-name="Tracé 8" d="M230.462,1298.8h-13.49c-1.85,5.53-3.261,9.992-3.548,11.114h-2.139l12.628-36.527h3.523l12.366,36.527h-5.609Zm-.574-1.723-6.1-18.158-5.949,17.4c-.078.26-.182.5-.26.755Z" transform="translate(13.754 -1272.662)" fill="#fff"/>
      <path id="Tracé_9" data-name="Tracé 9" d="M264.8,1306.877a19.432,19.432,0,0,1-11.611,4.07c-9.68,0-17.141-8.662-17.141-18.89,0-10.07,7.174-19.1,16.958-19.1a29.82,29.82,0,0,1,10.724,2.139l-1.617,4.723c-2.114-1.435-8.4-5.062-9.969-5.245-7.277.782-10.7,6.1-10.7,15.211,0,11.141,5.167,18.942,13.567,18.942a10.2,10.2,0,0,0,4.462-.862v-12.706H264.8Z" transform="translate(30.828 -1272.96)" fill="#fff"/>
      <path id="Tracé_10" data-name="Tracé 10" d="M264.169,1273.392h20.376v1.906c-1.487-.054-8.323-.21-10.437-.21h-4.619v15.264h2.948c1.7,0,8.924-.054,10.437-.107v1.906c-1.512-.052-8.74-.1-10.437-.1h-2.948v16.176h4.853c2.088,0,8.924-.157,10.437-.208v1.9H264.169Z" transform="translate(50.221 -1272.662)" fill="#fff"/>
    </g>
  </g>
</svg>
